<?xml version="1.0" standalone="no"?>
<!DOCTYPE svg PUBLIC "-//W3C//DTD SVG 20010904//EN"
 "http://www.w3.org/TR/2001/REC-SVG-20010904/DTD/svg10.dtd">
<svg version="1.0" xmlns="http://www.w3.org/2000/svg"
 width="347.000000pt" height="366.000000pt" viewBox="0 0 347.000000 366.000000"
 preserveAspectRatio="xMidYMid meet">

<g transform="translate(0.000000,366.000000) scale(0.100000,-0.100000)"
fill="#000000" stroke="none">
<path d="M2000 3340 c0 -17 99 -107 214 -194 170 -130 281 -228 313 -278 38
-59 53 -123 53 -219 0 -82 25 -202 46 -219 41 -35 66 36 65 179 -1 107 -20
196 -56 256 -47 82 -275 282 -467 411 -94 64 -168 92 -168 64z"/>
<path d="M1786 3215 c-188 -100 -591 -442 -714 -607 -62 -83 -71 -118 -82
-353 -13 -257 -52 -547 -110 -833 -99 -479 -114 -576 -114 -762 -1 -128 2
-150 21 -192 24 -54 52 -71 138 -88 82 -16 715 -27 715 -12 0 6 9 75 21 154
33 232 67 346 115 390 11 9 45 28 76 43 74 35 181 125 342 289 138 141 215
236 270 337 45 83 61 140 92 329 14 85 36 197 50 248 13 52 24 98 24 103 0 13
-47 11 -73 -2 -131 -69 -360 -272 -468 -414 -37 -49 -77 -101 -89 -115 l-21
-25 -45 50 c-25 28 -85 99 -132 159 l-87 108 -7 -43 c-3 -24 -7 -109 -7 -189
-1 -158 -22 -367 -47 -464 -17 -68 -87 -204 -144 -280 -63 -85 -241 -251 -284
-266 -26 -8 -41 -9 -48 -2 -15 15 47 96 131 174 177 163 271 351 307 612 16
118 17 141 3 285 -21 235 -19 360 9 450 33 104 131 299 171 339 31 31 38 34
80 30 52 -5 193 -67 229 -101 36 -33 67 -101 96 -212 29 -109 53 -158 79 -163
64 -13 87 391 29 505 -22 43 -164 164 -335 287 l-108 78 -32 -25 c-18 -14 -81
-70 -139 -124 -92 -87 -262 -235 -392 -342 -63 -52 -176 -125 -182 -118 -33
33 283 341 567 552 126 94 153 108 206 107 133 -2 406 -260 500 -471 13 -31
39 -109 58 -176 53 -188 52 -187 60 -30 10 174 -3 270 -44 333 -84 130 -346
345 -537 441 -74 37 -88 38 -148 6z"/>
<path d="M2775 2574 c-23 -23 -16 -68 12 -72 29 -4 89 49 80 71 -8 22 -70 23
-92 1z"/>
</g>
</svg>
