<?xml version="1.0" standalone="no"?>
<!DOCTYPE svg PUBLIC "-//W3C//DTD SVG 20010904//EN"
 "http://www.w3.org/TR/2001/REC-SVG-20010904/DTD/svg10.dtd">
<svg version="1.0" xmlns="http://www.w3.org/2000/svg"
 width="358.000000pt" height="346.000000pt" viewBox="0 0 358.000000 346.000000"
 preserveAspectRatio="xMidYMid meet">

<g transform="translate(0.000000,346.000000) scale(0.100000,-0.100000)"
fill="#000000" stroke="none">
<path d="M1875 2999 c-216 -133 -634 -507 -688 -616 -32 -63 -45 -146 -51
-323 -8 -222 -71 -670 -132 -935 -23 -101 -45 -215 -58 -305 -3 -19 -10 -57
-15 -85 -5 -27 -13 -101 -17 -164 l-7 -114 74 7 c105 9 134 19 220 73 101 64
377 347 436 448 49 83 109 262 129 383 18 111 18 233 -1 347 -23 141 -20 305
9 390 35 105 73 191 123 278 47 81 79 107 130 107 35 0 173 -60 218 -95 46
-34 61 -66 105 -212 39 -128 61 -173 85 -173 42 0 71 170 60 345 -7 96 -25
163 -57 200 -15 18 -286 231 -366 288 l-53 38 -44 -38 c-24 -21 -96 -85 -161
-143 -304 -271 -523 -445 -540 -428 -16 16 34 77 159 198 218 211 321 298 475
405 82 56 85 57 142 53 152 -11 381 -228 490 -463 20 -44 54 -140 75 -213 21
-72 40 -130 43 -128 2 3 4 83 3 178 0 120 -5 188 -16 224 -21 72 -139 212
-247 291 -46 34 -92 70 -103 80 -74 68 -246 163 -295 163 -14 0 -71 -27 -125
-61z"/>
</g>
</svg>
