<svg version="1.1" xmlns="http://www.w3.org/2000/svg" xmlns:xlink="http://www.w3.org/1999/xlink" width="279.19033" height="247.24415" viewBox="0,0,279.19033,247.24415"><g transform="translate(-100.40484,-56.37792)"><g data-paper-data="{&quot;isPaintingLayer&quot;:true}" fill-rule="nonzero" stroke-width="0" stroke-linecap="butt" stroke-linejoin="miter" stroke-miterlimit="10" stroke-dasharray="" stroke-dashoffset="0" style="mix-blend-mode: normal"><g><path d="M167.38485,214.25935c0,-45.84332 37.16335,-83.00668 83.00668,-83.00668c45.84332,0 83.00668,37.16335 83.00668,83.00668c0,45.84332 -37.16335,83.00668 -83.00668,83.00668c-45.84332,0 -83.00668,-37.16335 -83.00668,-83.00668z" fill="#514780" stroke="none"/><path d="M161.0288,214.25935c0,-49.35367 40.00906,-89.36273 89.36273,-89.36273c49.35367,0 89.36273,40.00906 89.36273,89.36273c0,49.35367 -40.00906,89.36273 -89.36273,89.36273c-49.35367,0 -89.36273,-40.00906 -89.36273,-89.36273zM251.53283,272.26166c31.31919,0 43.67121,-24.62783 38.97224,-34.16026c-1.44359,-2.92851 -70.24531,-1.48491 -71.6889,0c-7.40814,7.62017 9.09664,34.16026 32.71666,34.16026zM236.51798,210.061c0,-10.62768 -8.61544,-19.24311 -19.24311,-19.24311c-10.62768,0 -19.24311,8.61544 -19.24311,19.24311c0,5.31384 2.90118,-14.45596 19.24311,-14.12468c16.99355,0.3445 19.24311,19.43851 19.24311,14.12468zM302.80427,209.39144c0,-10.62768 -8.61544,-19.24311 -19.24311,-19.24311c-10.62768,0 -19.24311,8.61544 -19.24311,19.24311c0,5.58121 1.28969,-14.88346 19.17631,-14.60164c18.44119,0.29056 19.30992,19.64811 19.30992,14.60164z" fill="#7b6dc1" stroke="#000000"/><path d="M186.11699,154.07967l-5.38328,-73.48744l118.09978,-8.65133l5.38328,73.48744c0,0 -5.8605,6.04322 -61.84445,11.20026c-45.93255,4.23114 -56.25533,-2.54893 -56.25533,-2.54893z" fill="#695da6" stroke="#000000"/><path d="M100.40484,114.30937l135.12511,-57.93144l144.06522,14.30024l-135.12511,57.93144z" fill="#7b6dc1" stroke="#000000"/></g></g></g></svg>