<?xml version="1.0" standalone="no"?>
<!DOCTYPE svg PUBLIC "-//W3C//DTD SVG 20010904//EN"
 "http://www.w3.org/TR/2001/REC-SVG-20010904/DTD/svg10.dtd">
<svg version="1.0" xmlns="http://www.w3.org/2000/svg"
 width="1609.000000pt" height="729.000000pt" viewBox="0 0 1609.000000 729.000000"
 preserveAspectRatio="xMidYMid meet">

<g transform="translate(0.000000,729.000000) scale(0.100000,-0.100000)"
fill="#000000" stroke="none">
<path d="M782 5410 c-207 -54 -400 -226 -472 -418 -51 -135 -51 -131 -48
-1117 4 -1025 -1 -960 74 -1114 40 -80 157 -214 229 -259 69 -44 147 -79 220
-98 60 -16 108 -19 335 -19 228 0 275 3 335 19 237 64 421 238 496 471 18 55
23 95 23 185 l1 114 -130 53 c-282 116 -432 173 -451 173 -40 0 -44 -17 -44
-180 0 -212 13 -200 -226 -200 -146 0 -184 3 -202 16 l-22 15 0 859 c0 839 0
860 19 870 12 6 98 10 210 10 238 0 221 15 221 -197 0 -220 -22 -215 318 -78
147 59 278 114 291 122 23 15 24 18 19 127 -12 267 -150 476 -396 600 -110 56
-181 66 -467 65 -224 0 -270 -3 -333 -19z"/>
<path d="M2680 5415 c-202 -47 -383 -188 -470 -369 -74 -152 -71 -104 -68
-1169 l3 -952 27 -73 c55 -148 147 -267 273 -351 146 -97 249 -120 545 -121
136 0 233 5 287 14 262 47 463 223 552 484 l26 77 0 940 c0 1010 2 962 -52
1107 -31 82 -124 208 -200 271 -74 60 -198 121 -290 141 -92 20 -547 21 -633
1z m524 -641 c14 -14 16 -106 16 -869 l0 -854 -22 -15 c-18 -13 -56 -16 -205
-16 -170 0 -184 1 -203 20 -20 20 -20 33 -20 863 0 746 2 845 16 865 15 21 20
22 209 22 163 0 196 -3 209 -16z"/>
<path d="M4534 5410 c-149 -39 -293 -135 -381 -253 -48 -65 -89 -142 -105
-192 -38 -122 -38 -123 -38 -1357 l0 -1197 22 -15 c19 -14 65 -16 296 -16
l273 0 24 25 25 24 0 1170 c0 1147 0 1171 19 1181 12 6 98 10 210 10 185 0
190 -1 205 -22 14 -20 16 -149 16 -1190 l0 -1167 22 -15 c33 -24 553 -24 586
0 l22 15 0 1167 c0 1041 2 1170 16 1190 15 21 20 22 210 22 181 0 195 -1 214
-20 20 -20 20 -33 20 -1193 l0 -1174 25 -11 c18 -8 112 -12 294 -12 241 0 271
2 290 18 l22 17 -3 1230 c-4 1380 3 1257 -79 1415 -89 171 -255 302 -447 351
-65 16 -111 19 -328 19 -289 0 -340 -8 -470 -70 l-81 -39 -65 34 c-121 64
-188 75 -483 74 -221 0 -271 -3 -331 -19z"/>
<path d="M6985 5406 c-14 -21 -15 -153 -13 -1232 4 -1358 -3 -1245 81 -1414
81 -164 256 -306 442 -356 81 -22 474 -32 595 -14 317 46 554 283 600 600 6
38 10 552 10 1230 0 1039 -2 1168 -16 1188 -15 22 -17 22 -304 22 -287 0 -289
0 -304 -22 -14 -20 -16 -149 -16 -1185 0 -1150 0 -1163 -20 -1183 -19 -19 -33
-20 -205 -20 -172 0 -186 1 -205 20 -20 20 -20 33 -20 1188 0 1120 -1 1170
-18 1185 -16 15 -53 17 -305 17 l-287 0 -15 -24z"/>
<path d="M9372 5410 c-251 -66 -439 -255 -502 -508 -19 -74 -20 -121 -20
-1284 l0 -1207 22 -15 c33 -24 553 -24 586 0 l22 15 0 1167 c0 1041 2 1170 16
1190 15 21 20 22 210 22 181 0 195 -1 214 -20 20 -20 20 -33 20 -1189 l0
-1170 22 -15 c33 -24 553 -24 586 0 l22 15 0 1187 c0 729 -4 1213 -10 1255
-39 266 -259 498 -534 561 -106 25 -555 22 -654 -4z"/>
<path d="M10736 5408 c-14 -20 -16 -179 -16 -1499 l0 -1476 21 -27 20 -26 280
0 c266 0 280 1 299 20 20 20 20 33 20 1503 0 1326 -2 1485 -16 1505 -15 22
-17 22 -304 22 -287 0 -289 0 -304 -22z"/>
<path d="M12031 5410 c-246 -65 -437 -261 -501 -515 -19 -77 -20 -112 -20
-982 0 -963 0 -962 50 -1095 30 -81 88 -165 162 -237 95 -91 189 -144 313
-177 60 -16 108 -19 335 -19 228 0 275 3 335 19 318 85 535 372 523 691 l-3
79 -130 53 c-309 126 -432 173 -451 173 -40 0 -44 -17 -44 -180 0 -212 13
-200 -226 -200 -146 0 -184 3 -202 16 l-22 15 0 859 c0 839 0 860 19 870 12 6
98 10 210 10 238 0 221 15 221 -197 0 -220 -22 -215 318 -78 147 59 278 114
291 122 23 15 24 18 19 127 -12 267 -150 476 -396 600 -110 56 -181 66 -467
65 -224 0 -270 -3 -334 -19z"/>
<path d="M13930 5415 c-202 -47 -383 -188 -470 -369 -74 -152 -70 -73 -70
-1422 0 -1161 1 -1212 18 -1227 16 -15 52 -17 295 -17 264 0 278 1 297 20 19
19 20 33 20 239 0 186 2 222 16 235 13 14 47 16 213 16 150 0 201 -3 209 -13
7 -8 12 -98 14 -241 3 -212 4 -229 22 -242 29 -21 563 -21 592 0 19 14 19 38
19 1228 0 1305 3 1234 -52 1380 -31 82 -124 208 -200 271 -74 60 -198 121
-290 141 -92 20 -547 21 -633 1z m524 -641 c14 -14 16 -84 16 -619 0 -587 -1
-605 -19 -615 -12 -6 -98 -10 -210 -10 -159 0 -192 3 -205 16 -14 14 -16 83
-16 611 0 541 2 598 17 615 14 16 35 18 209 18 162 0 195 -3 208 -16z"/>
<path d="M6875 2390 c-4 -6 -1 -27 5 -48 15 -47 58 -169 72 -202 13 -31 22
-55 38 -100 17 -46 39 -101 51 -122 5 -10 9 -24 9 -32 0 -7 7 -26 15 -42 11
-21 13 -49 8 -120 -9 -146 23 -318 83 -435 20 -41 24 -62 24 -144 l0 -95 38 0
c20 0 116 -3 212 -7 l176 -6 11 100 c6 55 15 108 20 119 37 71 53 100 111 189
36 55 80 112 98 128 24 20 39 48 60 110 25 76 88 209 129 271 10 15 35 36 57
47 37 19 52 49 24 49 -7 0 -46 -7 -85 -16 l-72 -16 -57 -77 c-31 -42 -62 -82
-69 -88 -6 -7 -17 -26 -25 -43 -10 -23 -39 -45 -123 -91 -115 -64 -154 -89
-219 -139 -48 -37 -75 -38 -115 -4 -29 24 -31 31 -31 89 0 60 -2 66 -45 118
-46 57 -56 91 -31 100 17 7 33 -6 72 -57 73 -96 75 -100 73 -147 -2 -25 0 -50
4 -56 13 -20 49 -1 63 33 22 53 17 106 -22 201 -57 140 -64 152 -88 168 -39
26 -68 4 -104 -76 -24 -54 -35 -69 -52 -69 -23 0 -34 21 -140 270 -30 69 -63
141 -75 160 -11 19 -27 47 -34 63 -15 27 -53 38 -66 17z"/>
<path d="M5941 2191 c-108 -45 -119 -53 -190 -127 -139 -145 -213 -228 -222
-249 -5 -11 -15 -29 -21 -39 -66 -103 -188 -332 -188 -354 0 -5 -25 -67 -55
-138 -31 -70 -55 -137 -53 -148 4 -23 6 -25 148 -82 63 -25 127 -52 142 -60
29 -16 88 -19 88 -5 0 5 16 44 35 86 41 87 48 91 169 104 45 4 100 16 121 26
22 9 54 24 72 31 25 11 138 97 163 124 3 3 38 34 78 69 39 35 72 69 72 76 0
13 42 95 66 129 20 29 18 63 -5 71 -33 10 -67 -11 -125 -75 -62 -70 -94 -96
-153 -128 -72 -38 -108 -41 -124 -10 -14 27 -6 217 11 249 7 11 13 39 15 60 1
22 17 68 35 102 23 43 27 57 14 45 -10 -10 -31 -29 -46 -43 -54 -50 -69 -13
-17 41 54 56 27 61 -30 6 -30 -29 -60 -52 -67 -52 -29 0 -12 30 47 84 57 53
63 69 16 45 -12 -7 -50 -41 -85 -75 -35 -35 -69 -64 -77 -64 -22 0 -18 28 6
48 12 9 41 38 66 63 24 26 72 62 106 80 55 30 71 34 142 35 100 0 115 7 115
48 0 51 -17 64 -90 70 -61 5 -72 3 -179 -43z m-71 -405 c0 -17 -8 -27 -29 -36
-30 -12 -71 -53 -71 -70 0 -6 -4 -10 -9 -10 -10 0 -33 -71 -49 -155 -20 -98
-50 -193 -68 -213 -63 -69 -77 -82 -90 -82 -8 0 -14 -4 -14 -9 0 -5 -17 -12
-37 -15 -135 -24 -173 -19 -173 19 0 24 3 25 58 25 72 0 158 29 179 61 9 13
20 26 23 29 8 7 39 114 50 170 8 42 27 105 52 173 6 16 24 41 40 57 15 16 28
31 28 35 0 15 32 37 45 31 8 -3 15 -1 15 4 0 6 11 10 25 10 20 0 25 -5 25 -24z"/>
<path d="M9480 2203 c-17 -14 -37 -38 -43 -52 -6 -14 -13 -102 -16 -196 l-6
-169 -34 -23 c-19 -13 -50 -23 -70 -24 -90 -2 -141 -75 -141 -201 0 -78 -6
-93 -34 -82 -23 9 -23 174 0 210 21 31 12 41 -18 20 -12 -9 -35 -16 -49 -16
-15 0 -29 -4 -31 -8 -7 -17 -68 -52 -91 -52 -30 0 -61 34 -102 113 -17 31 -34
57 -39 57 -12 0 2 -153 21 -225 9 -33 36 -103 61 -155 74 -157 82 -186 82
-283 l0 -87 188 2 187 3 5 160 c6 182 7 185 94 270 45 44 55 61 77 135 51 169
51 163 17 285 -43 156 -46 219 -14 283 14 28 26 54 26 57 0 15 -42 2 -70 -22z"/>
<path d="M6250 2151 c-5 -11 -10 -27 -10 -37 0 -16 1 -16 20 1 21 19 27 55 10
55 -5 0 -14 -9 -20 -19z"/>
<path d="M9310 2156 c-26 -7 -46 -18 -48 -27 -2 -9 7 -70 19 -135 12 -65 24
-136 26 -157 5 -34 8 -38 32 -35 l26 3 3 174 c1 96 -1 178 -5 181 -5 4 -28 2
-53 -4z"/>
<path d="M6297 2104 c-10 -20 -15 -39 -13 -42 11 -10 58 47 52 63 -9 23 -19
18 -39 -21z"/>
<path d="M7622 2107 c-8 -10 -5 -42 14 -123 24 -103 45 -186 50 -192 7 -11 55
26 63 48 12 36 -15 226 -38 257 -18 25 -72 31 -89 10z"/>
<path d="M9123 2108 c-13 -6 -23 -16 -23 -23 0 -18 77 -315 83 -321 3 -3 18 0
34 8 18 9 27 21 26 33 -15 121 -25 210 -30 258 -6 56 -6 57 -37 56 -17 0 -41
-5 -53 -11z"/>
<path d="M6356 2065 c-26 -28 -26 -45 -1 -45 22 0 51 48 37 62 -7 7 -18 3 -36
-17z"/>
<path d="M7456 2075 c-22 -23 -20 -54 8 -122 54 -131 77 -196 74 -216 -5 -31
16 -31 50 1 l31 29 -19 84 c-10 46 -27 118 -38 159 -19 74 -20 75 -54 78 -23
2 -41 -3 -52 -13z"/>
<path d="M6058 2073 c7 -3 16 -2 19 1 4 3 -2 6 -13 5 -11 0 -14 -3 -6 -6z"/>
<path d="M8957 2063 c-48 -25 -48 -23 23 -178 15 -33 37 -81 49 -107 11 -26
25 -49 29 -52 16 -10 52 7 52 24 0 18 -53 239 -71 298 -12 36 -34 40 -82 15z"/>
<path d="M6008 2053 c7 -3 16 -2 19 1 4 3 -2 6 -13 5 -11 0 -14 -3 -6 -6z"/>
<path d="M3740 2028 c-52 -15 -100 -56 -121 -104 -18 -39 -19 -67 -17 -371 l3
-328 83 -3 82 -3 0 326 0 325 60 0 60 0 0 -167 c0 -93 3 -239 7 -325 l6 -158
79 0 78 0 0 333 c0 300 -2 336 -19 372 -22 50 -69 91 -119 105 -46 12 -135 12
-182 -2z"/>
<path d="M4109 2031 c-2 -6 -3 -191 -1 -411 l2 -400 151 0 c159 0 200 9 247
53 56 52 57 60 56 352 -1 256 -2 272 -23 313 -12 24 -39 54 -63 69 -40 27 -46
28 -204 31 -110 3 -163 0 -165 -7z m289 -404 l2 -238 -62 3 -63 3 -3 238 -2
238 62 -3 63 -3 3 -238z"/>
<path d="M4714 2021 c-47 -22 -80 -59 -95 -110 -7 -23 -9 -130 -7 -296 3 -289
5 -299 73 -350 48 -38 94 -45 216 -38 l105 6 29 74 c15 40 25 76 22 79 -3 3
-65 6 -139 7 l-133 2 -3 73 -3 72 29 0 c16 0 50 3 76 6 l47 7 -3 76 -3 76 -72
3 c-44 2 -73 7 -76 15 -2 7 -4 41 -3 77 l1 65 55 7 c30 3 94 6 143 7 48 1 87
5 87 9 0 4 -13 39 -29 77 l-30 70 -123 2 c-102 2 -130 0 -164 -16z"/>
<path d="M2605 2017 c-3 -6 -4 -190 -3 -407 l3 -395 83 -3 82 -3 0 161 c0 88
3 160 8 160 19 0 74 -43 92 -72 16 -27 20 -51 20 -125 0 -50 3 -98 6 -107 5
-13 22 -16 86 -16 l80 0 -3 123 c-4 113 -6 128 -34 183 l-30 61 30 41 c26 38
30 52 33 135 5 107 -8 163 -45 208 -49 58 -90 69 -256 69 -109 0 -149 -3 -152
-13z m283 -234 l-3 -78 -56 -3 -56 -3 -7 38 c-8 50 -8 108 1 116 3 4 33 7 65
7 l59 0 -3 -77z"/>
<path d="M3220 2014 c-42 -18 -76 -49 -98 -89 -15 -26 -17 -64 -14 -305 l3
-275 27 -44 c42 -69 83 -85 228 -89 91 -3 123 0 131 10 9 12 63 142 63 153 0
2 -64 6 -142 7 l-143 3 -3 72 -3 72 73 3 73 3 3 82 3 82 -73 3 -73 3 -3 77 -3
77 138 3 c116 3 138 6 141 19 1 8 -11 45 -27 82 l-30 67 -118 0 c-83 -1 -128
-5 -153 -16z"/>
<path d="M1136 2008 c-3 -7 -7 -38 -10 -68 -8 -77 -36 -150 -57 -150 -21 0
-49 78 -58 160 l-6 55 -84 3 -83 3 7 -68 c9 -95 48 -204 100 -285 l45 -69 0
-195 0 -195 83 3 82 3 0 195 0 195 43 69 c24 38 52 92 62 122 22 62 44 199 36
220 -7 19 -155 20 -160 2z"/>
<path d="M1716 2010 c-41 -13 -93 -66 -111 -114 -13 -35 -15 -93 -13 -366 l3
-325 83 -3 82 -3 0 71 0 71 63 -3 62 -3 3 -68 3 -68 77 3 77 3 3 320 c2 217
-1 333 -9 362 -13 48 -58 95 -111 117 -41 17 -163 20 -212 6z m164 -330 l0
-170 -60 0 -60 0 0 170 0 170 60 0 60 0 0 -170z"/>
<path d="M2094 2007 c-2 -7 -1 -191 3 -408 l8 -394 45 -3 c24 -2 59 -1 77 3
l33 6 2 162 3 162 80 5 c107 7 167 42 194 113 14 37 14 217 0 254 -13 34 -55
80 -91 99 -37 19 -346 20 -354 1z m290 -163 c3 -9 6 -42 6 -75 0 -53 -2 -59
-23 -65 -13 -3 -41 -4 -63 -2 l-39 3 -3 64 c-2 35 -1 70 2 77 8 21 112 19 120
-2z"/>
<path d="M8816 1946 c-22 -19 -27 -28 -19 -38 6 -7 28 -44 48 -83 21 -38 44
-81 51 -95 8 -14 22 -36 32 -49 16 -20 22 -22 41 -11 19 9 21 17 16 43 -4 18
-11 36 -16 42 -5 5 -9 17 -9 27 0 10 -4 26 -9 36 -5 9 -17 35 -26 57 -40 99
-60 111 -109 71z"/>
</g>
</svg>
